HIERARCHY
ROOT Bip001_Pelvis
{
  OFFSET 34.4345 95.6767 -26.8758
  CHANNELS 6 Xposition Yposition Zposition Zrotation Xrotation Yrotation
  JOINT Bip001_Spine
  {
    OFFSET 1.4188e-005 10.2191 -0.0116013
    CHANNELS 3 Zrotation Xrotation Yrotation
    JOINT Bip001_L_Thigh
    {
      OFFSET 11.0458 -10.2192 0.0116197
      CHANNELS 3 Zrotation Xrotation Yrotation
      JOINT Bip001_L_Calf
      {
        OFFSET -0.707118 -44.0221 0.360014
        CHANNELS 3 Zrotation Xrotation Yrotation
        JOINT Bip001_L_Foot
        {
          OFFSET -0.651902 -40.5938 -3.56146
          CHANNELS 3 Zrotation Xrotation Yrotation
          JOINT Bip001_L_Toe0
          {
            OFFSET 0.0530839 -10.2181 13.1504
            CHANNELS 3 Zrotation Xrotation Yrotation
            End Site
            {
              OFFSET -1.02532e-005 0 7.55606
            }
          }
        }
      }
    }
    JOINT Bip001_R_Thigh
    {
      OFFSET -11.0458 -10.2191 0.0115893
      CHANNELS 3 Zrotation Xrotation Yrotation
      JOINT Bip001_R_Calf
      {
        OFFSET 0.706994 -44.0221 0.35984
        CHANNELS 3 Zrotation Xrotation Yrotation
        JOINT Bip001_R_Foot
        {
          OFFSET 0.651786 -40.5938 -3.5613
          CHANNELS 3 Zrotation Xrotation Yrotation
          JOINT Bip001_R_Toe0
          {
            OFFSET -0.0531479 -10.2181 13.1504
            CHANNELS 3 Zrotation Xrotation Yrotation
            End Site
            {
              OFFSET -1.02894e-005 0 7.55606
            }
          }
        }
      }
    }
    JOINT Bip001_Spine1
    {
      OFFSET 1.87041e-005 14.5736 1.08638
      CHANNELS 3 Zrotation Xrotation Yrotation
      JOINT Bip001_Spine2
      {
        OFFSET 2.24614e-005 14.5058 -1.69078
        CHANNELS 3 Zrotation Xrotation Yrotation
        JOINT Bip001_Neck
        {
          OFFSET 2.20278e-005 15.3945 -0.489414
          CHANNELS 3 Zrotation Xrotation Yrotation
          JOINT Bip001_L_Clavicle
          {
            OFFSET 6.06036 -0.000579998 0.00836775
            CHANNELS 3 Zrotation Xrotation Yrotation
            JOINT Bip001_L_UpperArm
            {
              OFFSET 11.5509 -0.0600302 0.00193952
              CHANNELS 3 Zrotation Xrotation Yrotation
              JOINT Bip001_L_Forearm
              {
                OFFSET 25.9523 0.0806089 -2.15551
                CHANNELS 3 Zrotation Xrotation Yrotation
                JOINT Bip001_L_Hand
                {
                  OFFSET 32.2475 0.153767 1.63968
                  CHANNELS 3 Zrotation Xrotation Yrotation
                  JOINT Bip001_L_Finger0
                  {
                    OFFSET 6.04639 -2.20976 5.90322
                    CHANNELS 3 Zrotation Xrotation Yrotation
                    End Site
                    {
                      OFFSET 4.22375 -1.43895 0.606485
                    }
                  }
                  JOINT Bip001_L_Finger1
                  {
                    OFFSET 11.0826 -0.704819 -0.198153
                    CHANNELS 3 Zrotation Xrotation Yrotation
                    End Site
                    {
                      OFFSET 6.20027 -0.397518 -0.0787166
                    }
                  }
                }
              }
            }
          }
          JOINT Bip001_R_Clavicle
          {
            OFFSET -6.06037 -0.000563197 0.00835105
            CHANNELS 3 Zrotation Xrotation Yrotation
            JOINT Bip001_R_UpperArm
            {
              OFFSET -11.5509 -0.0599978 0.00190698
              CHANNELS 3 Zrotation Xrotation Yrotation
              JOINT Bip001_R_Forearm
              {
                OFFSET -25.9523 0.0806822 -2.15589
                CHANNELS 3 Zrotation Xrotation Yrotation
                JOINT Bip001_R_Hand
                {
                  OFFSET -32.2475 0.153859 1.63989
                  CHANNELS 3 Zrotation Xrotation Yrotation
                  JOINT Bip001_R_Finger0
                  {
                    OFFSET -6.04641 -2.20976 5.90317
                    CHANNELS 3 Zrotation Xrotation Yrotation
                    End Site
                    {
                      OFFSET -4.22376 -1.43895 0.60647
                    }
                  }
                  JOINT Bip001_R_Finger1
                  {
                    OFFSET -11.0826 -0.704794 -0.198182
                    CHANNELS 3 Zrotation Xrotation Yrotation
                    End Site
                    {
                      OFFSET -6.20028 -0.397504 -0.0787333
                    }
                  }
                }
              }
            }
          }
          JOINT Bip001_Head
          {
            OFFSET 1.09673e-005 11.2744 2.05948
            CHANNELS 3 Zrotation Xrotation Yrotation
            End Site
            {
              OFFSET 2.89576e-005 20.8808 -2.77728e-005
            }
          }
        }
      }
    }
  }
}
MOTION
Frames:	13
Frame Time:	0.04
33.0338 95.9823 -28.6201 0.461622 -0.319349 2.11159 -0.35555 2.16512 0.459036 5.05466 -2.94546 5.23717 -0.429782 6.53602 -6.3642 1.72997 -3.90436 -0.00934637 0.619571 -3.67457 -0.177887 -3.17688 -2.93181 -3.5471 -0.193853 10.1025 0.488628 -5.35618 -9.39088 2.76578 2.14432 -7.30201 2.21057 -0.735033 4.30975 0.932332 -0.727265 4.30976 0.932407 1.14071 -9.31296 -3.94826 -25.705 9.72535 1.11418 -57.4794 44.4408 3.98052 16.5633 3.21273 -20.8794 8.52027 1.044 -4.78648 -3.18055e-015 -6.36111e-015 3.18055e-015 8.82782e-031 -1.59028e-014 3.18055e-015 23.9618 17.0981 18.1948 54.6352 10.8998 2.53819 -6.01379 40.5994 10.3031 -10.9615 -0.469628 9.22641 3.18055e-015 0 -3.97569e-016 3.18055e-015 -1.59028e-015 7.95139e-016 -1.6777 -4.83009 -3.26058 
33.0526 95.9763 -28.6242 0.476529 -0.29679 1.78431 -0.356137 2.16511 0.474561 4.95141 -2.81562 4.96889 -0.446606 6.29065 -5.90419 2.50187 -3.34685 -0.0381509 0.930548 -4.21294 -0.441975 -3.22573 -3.12396 -3.49791 -0.212462 10.3293 0.500113 -5.30963 -9.46877 2.96971 2.13991 -7.26886 2.2104 -0.73088 4.30971 0.963578 -0.729608 4.30972 0.963577 1.37332 -9.23733 -3.83792 -25.8331 9.65503 1.0749 -57.8632 44.4301 3.99913 16.7882 3.32217 -20.791 9.05306 0.986168 -4.93125 0 6.36111e-015 -0 8.82782e-032 3.18056e-015 -1.59028e-015 24.0601 16.8463 17.4949 54.8174 11.8704 2.84162 -6.96118 40.8756 11.434 -10.9328 -1.11465 11.7185 3.18055e-015 1.59028e-015 -0 3.18055e-015 0 -3.97569e-016 -1.89182 -4.9565 -3.06687 
33.0928 95.9887 -28.6114 0.515876 -0.340592 1.47459 -0.350513 2.16511 0.473472 4.9541 -2.66484 4.7797 -0.576396 6.22803 -5.2178 1.9924 -3.67528 -0.0200106 0.813192 -3.86086 -0.376046 -3.31619 -3.14991 -3.52078 -0.236089 10.3563 0.54906 -5.22151 -9.47544 3.23461 2.12649 -7.23583 2.21024 -0.719466 4.32721 0.96152 -0.718965 4.32722 0.961409 1.50758 -9.06156 -3.69701 -25.7208 9.51615 0.968692 -58.1328 44.3573 3.82334 16.7977 3.37305 -20.4959 9.63773 1.47945 -4.79996 3.18055e-015 6.36111e-015 -0 3.18055e-015 6.36111e-015 -1.59028e-015 24.0589 16.4654 16.8888 54.7422 13.1331 3.32936 -7.72155 41.641 11.5317 -13.1557 -1.73209 12.7951 3.18055e-015 3.18055e-015 -1.19271e-015 6.36111e-015 1.59028e-015 -2.78299e-015 -2.02104 -5.13807 -2.88131 
33.1386 95.991 -28.5573 0.550694 -0.481097 1.38587 -0.338598 2.18483 0.425051 4.81992 -2.4849 4.93526 -0.400382 6.23635 -5.28211 1.60939 -3.89907 -0.0107798 0.614684 -3.61271 -0.178485 -3.40717 -2.98714 -3.57784 -0.224649 10.315 0.582082 -5.15592 -9.49744 3.38351 2.12517 -7.2408 2.21026 -0.694176 4.36702 0.863969 -0.694175 4.36702 0.863968 1.88084 -8.8793 -3.59031 -25.9434 9.36126 0.805752 -58.154 44.1476 3.70375 16.6828 3.61737 -20.33 10.2627 2.36643 -4.33499 -3.18055e-015 3.18055e-015 -1.59028e-015 -3.18055e-015 6.36111e-015 -4.77083e-015 23.4892 15.9506 16.1276 54.2334 14.33 3.5308 -7.6793 40.8861 12.3171 -13.5785 -0.598092 9.98462 -3.18055e-015 -3.18055e-015 3.97569e-016 -3.18055e-015 0 -7.95139e-016 -2.31054 -5.23415 -2.6449 
33.151 95.9911 -28.5102 0.512665 -0.637189 1.28284 -0.314132 2.19371 0.399703 4.8562 -2.26777 4.92706 -0.470571 6.20319 -5.14382 1.71728 -3.90301 -0.00938716 0.650141 -3.64336 -0.22177 -3.38493 -2.81673 -3.64391 -0.292333 10.2828 0.639368 -5.10532 -9.49881 3.54404 2.12319 -7.22062 2.21017 -0.644296 4.38616 0.812348 -0.644295 4.38615 0.812347 2.17678 -8.72824 -3.54821 -26.2452 9.25183 0.582226 -58.0491 43.8919 3.77932 16.5634 3.78903 -20.3165 10.6631 3.04365 -3.8948 -6.36111e-015 0 1.59028e-015 -3.18055e-015 3.18056e-015 -0 23.1499 15.6995 15.9332 53.7512 14.8569 3.18278 -8.5065 40.6727 13.5207 -11.2622 0.100213 8.56778 -0 0 1.59028e-015 -0 0 2.38542e-015 -2.52301 -5.30004 -2.50396 
33.1599 95.9933 -28.5029 0.482433 -0.705811 1.18483 -0.297709 2.19445 0.393759 4.87165 -2.191 5.00628 -0.471275 6.24294 -5.09746 1.64212 -3.98152 -0.00901855 0.618467 -3.59263 -0.214757 -3.35857 -2.7683 -3.69161 -0.360441 10.2836 0.668901 -5.04729 -9.48741 3.7029 2.11665 -7.19996 2.17359 -0.610511 4.38678 0.784774 -0.610524 4.38677 0.785261 2.30382 -8.65424 -3.54496 -26.3773 9.19904 0.464807 -57.8344 43.8122 3.65057 16.3298 3.80187 -20.1212 10.98 3.07722 -3.96341 -3.18055e-015 -3.18055e-015 -0 -3.18055e-015 -6.36111e-015 -0 22.9302 15.6416 16.0704 53.7774 14.851 2.73241 -9.29204 40.4234 14.2618 -9.85239 0.50125 8.60165 3.18055e-015 -1.59028e-015 -3.97569e-016 2.20695e-032 -1.59028e-015 7.95139e-016 -2.56375 -5.48158 -2.46915 
33.2313 95.9954 -28.551 0.657416 -0.585258 1.03066 -0.329502 2.16339 0.393696 4.61497 -2.15166 4.81753 -0.416072 5.95927 -4.80273 1.72464 -3.76421 -0.0133474 0.621916 -3.65749 -0.204967 -3.61123 -3.03283 -3.60155 -0.268893 10.547 0.659954 -5.04395 -9.59188 3.72223 2.11945 -7.22022 2.20097 -0.673668 4.32448 0.78412 -0.673667 4.32448 0.784117 2.38995 -8.68906 -3.54439 -26.4236 9.19796 0.564467 -57.5986 43.7609 3.43606 16.2401 4.12656 -20.0379 10.722 2.59304 -4.17811 3.18055e-015 0 -0 0 0 -0 22.7319 15.7174 16.2877 53.9426 14.8389 2.51319 -9.37242 40.8965 14.534 -10.134 -0.166905 9.55639 3.18055e-015 1.59028e-015 3.97569e-016 3.18055e-015 3.18056e-015 1.98785e-015 -2.57272 -5.59266 -2.45111 
33.2526 95.9795 -28.5619 0.690765 -0.667058 0.900369 -0.337485 2.15948 0.396746 4.55773 -2.03767 4.98867 -0.410511 5.94333 -4.92905 1.96198 -3.66762 -0.021422 0.684708 -3.79647 -0.228372 -3.67937 -3.03824 -3.7024 -0.284875 10.6933 0.677734 -4.99655 -9.71231 3.93859 2.11219 -7.17572 2.17557 -0.681998 4.31443 0.807 -0.682351 4.31443 0.806996 2.44616 -8.59998 -3.54206 -26.4904 9.08234 0.631811 -57.4905 43.6655 3.38999 16.2409 4.35018 -20.093 10.159 2.13166 -4.53 2.64834e-031 -9.54166e-015 1.59028e-015 -3.18055e-015 -6.36111e-015 1.59028e-015 22.6428 15.7013 16.557 54.295 14.6079 1.92372 -9.82172 41.1327 15.2364 -9.81776 -0.426504 10.5728 3.18055e-015 0 3.97569e-016 3.18055e-015 0 -1.19271e-015 -2.58552 -5.76407 -2.43729 
33.2703 95.9744 -28.5952 0.711855 -0.725024 0.773227 -0.342331 2.15345 0.408731 4.52035 -1.98162 5.16435 -0.382653 5.95963 -5.04353 1.96088 -3.67671 -0.025908 0.64714 -3.81999 -0.19123 -3.72256 -3.08227 -3.76534 -0.297438 10.8247 0.726476 -4.95203 -9.751 4.07089 2.10953 -7.17893 2.17831 -0.691313 4.30439 0.831839 -0.692103 4.3044 0.831664 2.45031 -8.67236 -3.51653 -26.5459 9.11199 0.799563 -57.4921 43.6069 3.40463 16.2049 4.13861 -20.3843 9.96471 2.14034 -4.50296 -3.18055e-015 -3.18055e-015 -0 -3.18055e-015 -6.36111e-015 -0 22.6513 15.7903 16.6007 54.8309 14.4402 1.22406 -10.8431 40.8015 16.0939 -8.82252 -0.287996 11.4986 3.18055e-015 -1.59028e-015 -2.38542e-015 -1.54487e-031 -3.18056e-015 -2.78299e-015 -2.58033 -5.75439 -2.40852 
33.288 95.9711 -28.6355 0.739611 -0.718389 0.705374 -0.346928 2.1304 0.401681 4.46096 -1.93799 5.18066 -0.372239 5.86776 -5.02987 2.22584 -3.48955 -0.0300018 0.760074 -4.00785 -0.276512 -3.76726 -3.13486 -3.76167 -0.290906 10.8943 0.758863 -4.94727 -9.78521 4.09963 2.11262 -7.19726 2.19381 -0.707987 4.25827 0.816946 -0.708562 4.25828 0.81704 2.46813 -8.66101 -3.43137 -26.5705 9.07912 0.917288 -57.7322 43.7266 3.48004 16.3597 4.05811 -20.4089 10.2838 2.19983 -4.56727 -3.18055e-015 3.18055e-015 3.18055e-015 -3.18055e-015 0 1.59028e-015 22.6521 15.7419 16.512 55.3856 14.4753 0.550762 -11.8791 40.4752 16.5991 -8.4795 -0.34618 11.7693 -3.18055e-015 -1.59028e-015 -1.19271e-015 -3.18055e-015 -1.59028e-015 -0 -2.55804 -5.77321 -2.3289 
33.3013 95.9611 -28.6749 0.767849 -0.779616 0.721284 -0.349477 2.12028 0.376413 4.43077 -1.88427 5.4079 -0.378076 5.86274 -5.31904 2.35314 -3.44622 -0.0332915 0.756951 -4.08618 -0.238928 -3.81788 -3.11976 -3.81439 -0.285037 10.978 0.805489 -4.95103 -9.84744 4.14949 2.12118 -7.20529 2.17909 -0.721342 4.23814 0.76782 -0.7211 4.23813 0.767877 2.52232 -8.46434 -3.38541 -26.6035 8.88847 0.891748 -58.0478 43.8643 3.58898 16.6352 4.27275 -20.1904 10.4326 1.8718 -4.88547 -3.18055e-015 -9.54166e-015 -1.59028e-015 -3.18055e-015 -3.18056e-015 -1.59028e-015 22.6353 15.4871 16.3698 55.5372 14.6545 -0.235021 -12.3785 39.8967 17.2719 -8.46216 -0.149728 11.2015 -4.41391e-032 -1.59028e-015 -1.59028e-015 0 0 -0 -2.60249 -5.91184 -2.26459 
33.3081 95.9381 -28.725 0.766421 -0.810951 0.776102 -0.351703 2.11307 0.345928 4.40477 -1.91264 5.85227 -0.371607 5.87745 -5.92077 3.21973 -2.92542 -0.0700086 1.0951 -4.68653 -0.537328 -3.82567 -3.17973 -3.83925 -0.282994 11.139 0.800413 -4.95444 -9.92168 4.16456 2.13344 -7.2478 2.21661 -0.720473 4.22487 0.70571 -0.718982 4.22487 0.70571 2.52075 -8.4283 -3.33921 -26.603 8.85892 0.896025 -58.2085 43.8356 3.68304 16.6449 4.15525 -20.0687 10.1735 1.757 -4.85203 0 0 -0 -3.18055e-015 -3.18056e-015 -0 22.7379 15.4347 16.2563 55.4467 14.6396 -1.31146 -12.9214 38.573 18.3166 -7.65441 0.278118 11.2158 3.18055e-015 0 -3.18055e-015 0 0 -3.18055e-015 -2.5663 -5.77844 -2.22228 
33.2893 95.9441 -28.767 0.74228 -0.817782 0.847889 -0.35457 2.1065 0.327414 4.49036 -2.02042 6.12607 -0.325358 6.11044 -6.10719 2.49435 -3.47716 -0.0359059 0.871927 -4.22349 -0.347552 -3.77844 -3.14492 -3.85298 -0.280927 11.0683 0.835471 -4.97562 -9.86911 4.10084 2.13863 -7.25177 2.18961 -0.71991 4.21987 0.667883 -0.717478 4.21987 0.667575 2.57758 -8.46984 -3.34658 -26.6317 8.88568 0.927891 -58.1608 43.7219 3.7499 16.3867 3.79988 -20.1659 9.80559 1.66858 -4.69111 6.36111e-015 -3.18055e-015 -3.18055e-015 6.36111e-015 0 -3.18055e-015 22.7571 15.5085 16.3001 55.4798 14.4618 -2.3279 -13.499 38.4266 19.1941 -8.0537 -0.19219 11.4041 5.51738e-032 1.59028e-015 -1.98785e-015 -3.18055e-015 1.59028e-015 -3.97569e-016 -2.59632 -5.61847 -2.21239 
